<svg xmlns="http://www.w3.org/2000/svg" xmlns:xlink="http://www.w3.org/1999/xlink" width="326" zoomAndPan="magnify" viewBox="0 0 244.5 37.5" height="50" preserveAspectRatio="xMidYMid meet" version="1.0"><defs><g/><clipPath id="4840edaac4"><path d="M 14 1.671875 L 23 1.671875 L 23 15 L 14 15 Z M 14 1.671875 " clip-rule="nonzero"/></clipPath><clipPath id="90f3241be2"><path d="M 7.015625 29 L 16 29 L 16 37 L 7.015625 37 Z M 7.015625 29 " clip-rule="nonzero"/></clipPath><clipPath id="ad00258f9d"><path d="M 29 1.671875 L 39.582031 1.671875 L 39.582031 17 L 29 17 Z M 29 1.671875 " clip-rule="nonzero"/></clipPath></defs><path fill="#044940" d="M 26.488281 16.265625 L 26.5 16.277344 L 26.5 8.652344 L 20.84375 8.652344 L 20.84375 12.734375 C 21.328125 12.535156 21.859375 12.421875 22.414062 12.421875 C 24.589844 12.421875 26.363281 14.125 26.488281 16.265625 " fill-opacity="1" fill-rule="nonzero"/><path fill="#044940" d="M 19.585938 16.507812 C 19.585938 16.566406 19.597656 16.625 19.601562 16.683594 L 21.125 15.667969 C 21.335938 15.53125 21.609375 15.53125 21.820312 15.667969 L 23.359375 16.695312 L 24.894531 15.667969 C 24.953125 15.628906 25.011719 15.605469 25.078125 15.589844 C 24.695312 14.480469 23.652344 13.679688 22.414062 13.679688 C 20.855469 13.679688 19.585938 14.949219 19.585938 16.507812 " fill-opacity="1" fill-rule="nonzero"/><path fill="#044940" d="M 26.871094 7.394531 L 28.753906 5.507812 L 23.617188 5.507812 L 21.734375 7.394531 L 26.871094 7.394531 " fill-opacity="1" fill-rule="nonzero"/><path fill="#044940" d="M 27.757812 16.277344 L 28.242188 15.953125 L 31.578125 7.074219 L 30.273438 5.769531 L 27.757812 8.28125 L 27.757812 16.277344 " fill-opacity="1" fill-rule="nonzero"/><g clip-path="url(#4840edaac4)"><path fill="#044940" d="M 16.421875 7.105469 C 16.644531 7.335938 16.660156 7.699219 16.453125 7.945312 C 16.246094 8.195312 15.886719 8.242188 15.621094 8.0625 C 15.355469 7.882812 15.003906 7.917969 14.773438 8.140625 C 14.769531 8.148438 14.761719 8.152344 14.757812 8.160156 C 14.753906 8.160156 14.75 8.164062 14.75 8.167969 C 14.660156 8.261719 14.597656 8.386719 14.574219 8.519531 C 14.53125 8.757812 14.601562 8.992188 14.761719 9.160156 C 14.773438 9.175781 14.875 9.285156 14.996094 9.429688 C 15.046875 9.488281 15.101562 9.554688 15.15625 9.621094 C 15.382812 9.628906 15.609375 9.664062 15.828125 9.722656 C 16.769531 9.964844 17.5625 10.605469 18.003906 11.480469 L 19.191406 14.011719 C 19.3125 13.851562 19.445312 13.703125 19.585938 13.566406 L 19.585938 8.023438 C 19.585938 8.007812 19.59375 7.996094 19.59375 7.984375 C 19.597656 7.925781 19.609375 7.871094 19.628906 7.816406 C 19.636719 7.796875 19.640625 7.777344 19.648438 7.757812 C 19.679688 7.691406 19.71875 7.632812 19.769531 7.578125 L 20.0625 7.285156 L 20.042969 7.269531 L 21.894531 5.382812 C 22.167969 5.105469 22.167969 4.652344 21.894531 4.375 C 21.640625 4.117188 21.195312 4.117188 20.941406 4.375 L 20.015625 5.320312 C 19.835938 5.503906 19.566406 5.558594 19.328125 5.460938 C 19.089844 5.367188 18.9375 5.132812 18.9375 4.878906 L 18.9375 2.367188 C 18.9375 2.019531 18.667969 1.738281 18.332031 1.738281 C 18 1.738281 17.726562 2.019531 17.726562 2.367188 L 17.726562 4.878906 C 17.726562 5.132812 17.570312 5.367188 17.335938 5.460938 C 17.101562 5.558594 16.828125 5.503906 16.648438 5.320312 L 15.726562 4.382812 C 15.597656 4.25 15.425781 4.175781 15.246094 4.175781 C 15.066406 4.175781 14.894531 4.25 14.765625 4.382812 C 14.492188 4.660156 14.492188 5.109375 14.761719 5.386719 L 16.421875 7.105469 " fill-opacity="1" fill-rule="nonzero"/></g><path fill="#044940" d="M 29.644531 2.992188 L 23.988281 2.992188 L 23.988281 4.25 L 29.644531 4.25 L 29.644531 2.992188 " fill-opacity="1" fill-rule="nonzero"/><g clip-path="url(#90f3241be2)"><path fill="#044940" d="M 13.777344 29.390625 C 13.234375 29.390625 12.722656 29.601562 12.335938 29.988281 L 11.859375 30.464844 C 11.617188 30.710938 11.21875 30.710938 10.972656 30.464844 L 10.496094 29.988281 C 10.109375 29.601562 9.601562 29.390625 9.054688 29.390625 C 7.929688 29.390625 7.015625 30.304688 7.015625 31.429688 C 7.015625 32.878906 7.359375 34.328125 8.007812 35.621094 L 8.226562 36.0625 C 8.496094 36.601562 9.035156 36.933594 9.640625 36.933594 C 9.882812 36.933594 10.128906 36.875 10.34375 36.765625 L 11.132812 36.371094 C 11.226562 36.328125 11.320312 36.304688 11.417969 36.304688 C 11.511719 36.304688 11.609375 36.328125 11.699219 36.371094 L 12.488281 36.765625 C 12.707031 36.875 12.949219 36.933594 13.195312 36.933594 C 13.796875 36.933594 14.339844 36.601562 14.609375 36.0625 L 14.828125 35.621094 C 15.476562 34.328125 15.816406 32.878906 15.816406 31.429688 C 15.816406 30.304688 14.902344 29.390625 13.777344 29.390625 " fill-opacity="1" fill-rule="nonzero"/></g><path fill="#044940" d="M 34.324219 17.972656 L 32.785156 16.949219 L 31.527344 17.785156 L 31.527344 36.933594 L 34.042969 36.933594 C 35.085938 36.933594 35.929688 36.089844 35.929688 35.046875 L 35.929688 17.367188 L 35.019531 17.972656 C 34.808594 18.113281 34.535156 18.113281 34.324219 17.972656 " fill-opacity="1" fill-rule="nonzero"/><path fill="#044940" d="M 13.503906 14.613281 L 15.136719 13.351562 L 15.90625 14.34375 L 14.289062 15.597656 L 14.421875 15.765625 L 15.816406 16.695312 L 17.351562 15.667969 C 17.5625 15.53125 17.839844 15.53125 18.050781 15.667969 L 18.382812 15.890625 C 18.402344 15.738281 18.4375 15.589844 18.476562 15.445312 L 16.871094 12.03125 C 16.605469 11.496094 16.101562 11.089844 15.511719 10.9375 C 14.925781 10.785156 14.300781 10.890625 13.796875 11.234375 C 13.289062 11.578125 12.949219 12.125 12.867188 12.734375 C 12.785156 13.347656 12.964844 13.972656 13.367188 14.441406 L 13.503906 14.613281 " fill-opacity="1" fill-rule="nonzero"/><path fill="#044940" d="M 27.476562 17.972656 C 27.265625 18.113281 26.992188 18.113281 26.78125 17.972656 L 25.242188 16.949219 L 23.707031 17.972656 C 23.496094 18.113281 23.222656 18.113281 23.007812 17.972656 L 21.472656 16.949219 L 19.9375 17.972656 C 19.726562 18.113281 19.449219 18.113281 19.238281 17.972656 L 17.703125 16.949219 L 16.164062 17.972656 C 15.953125 18.113281 15.679688 18.113281 15.46875 17.972656 L 14.558594 17.367188 L 14.558594 28.238281 C 15.996094 28.589844 17.074219 29.882812 17.074219 31.429688 C 17.074219 33.070312 16.683594 34.71875 15.953125 36.183594 L 15.730469 36.625 C 15.675781 36.734375 15.613281 36.835938 15.546875 36.933594 L 30.273438 36.933594 L 30.273438 17.785156 L 29.015625 16.949219 L 27.476562 17.972656 " fill-opacity="1" fill-rule="nonzero"/><g clip-path="url(#ad00258f9d)"><path fill="#044940" d="M 35.886719 10.101562 L 34.660156 6.332031 L 35.855469 5.941406 L 37.082031 9.714844 Z M 34.046875 14.5 L 32.816406 10.730469 L 34.011719 10.34375 L 35.242188 14.113281 Z M 39.167969 2.960938 C 38.632812 2.179688 37.792969 1.738281 36.867188 1.738281 C 35.707031 1.738281 34.644531 2.484375 34.226562 3.601562 L 29.625 15.84375 L 30.902344 16.695312 L 32.4375 15.667969 C 32.648438 15.53125 32.921875 15.53125 33.136719 15.667969 L 34.671875 16.695312 L 35.613281 16.066406 L 39.507812 5.703125 C 39.851562 4.785156 39.722656 3.761719 39.167969 2.960938 " fill-opacity="1" fill-rule="nonzero"/></g><g fill="#044940" fill-opacity="1"><g transform="translate(42.361998, 30.416038)"><g><path d="M 10.96875 -4.5 L 16.75 -4.5 C 16.75 -3.613281 16.691406 -2.851562 16.578125 -2.21875 C 16.460938 -1.582031 16.101562 -1.035156 15.5 -0.578125 C 14.90625 -0.128906 14.117188 0.09375 13.140625 0.09375 L 5.609375 0.09375 C 4.648438 0.09375 3.890625 -0.179688 3.328125 -0.734375 C 2.773438 -1.285156 2.5 -2.039062 2.5 -3 L 2.5 -22.78125 L 2.734375 -23.015625 L 4.703125 -23.015625 C 6.796875 -23.015625 7.84375 -21.878906 7.84375 -19.609375 L 7.84375 -4.375 C 8.820312 -4.457031 9.863281 -4.5 10.96875 -4.5 Z M 10.96875 -4.5 "/></g></g></g><g fill="#044940" fill-opacity="1"><g transform="translate(59.770554, 30.416038)"><g><path d="M 20.25 -22.78125 L 20.25 -8.40625 C 20.25 -5.5625 19.46875 -3.363281 17.90625 -1.8125 C 16.351562 -0.269531 14.128906 0.5 11.234375 0.5 C 8.347656 0.5 6.117188 -0.269531 4.546875 -1.8125 C 2.984375 -3.363281 2.203125 -5.5625 2.203125 -8.40625 L 2.203125 -22.78125 L 2.4375 -23.015625 L 4.40625 -23.015625 C 6.519531 -23.015625 7.578125 -21.878906 7.578125 -19.609375 L 7.578125 -8.34375 C 7.578125 -6.78125 7.851562 -5.617188 8.40625 -4.859375 C 8.957031 -4.109375 9.898438 -3.734375 11.234375 -3.734375 C 12.578125 -3.734375 13.523438 -4.109375 14.078125 -4.859375 C 14.628906 -5.617188 14.90625 -6.78125 14.90625 -8.34375 L 14.90625 -22.78125 C 15.601562 -22.914062 16.492188 -22.984375 17.578125 -22.984375 C 18.648438 -22.984375 19.539062 -22.914062 20.25 -22.78125 Z M 20.25 -22.78125 "/></g></g></g><g fill="#044940" fill-opacity="1"><g transform="translate(82.214926, 30.416038)"><g><path d="M 2.609375 0 L 2.609375 -22.78125 C 3.296875 -22.914062 4.179688 -22.984375 5.265625 -22.984375 C 6.359375 -22.984375 7.257812 -22.914062 7.96875 -22.78125 L 7.96875 0 C 7.257812 0.132812 6.359375 0.203125 5.265625 0.203125 C 4.179688 0.203125 3.296875 0.132812 2.609375 0 Z M 2.609375 0 "/></g></g></g><g fill="#044940" fill-opacity="1"><g transform="translate(92.786789, 30.416038)"><g><path d="M 11.34375 -12.9375 L 16.578125 -12.984375 C 18.929688 -12.984375 20.109375 -11.867188 20.109375 -9.640625 L 20.109375 -0.875 C 17.242188 0.0390625 14.234375 0.5 11.078125 0.5 C 9.472656 0.5 8.050781 0.234375 6.8125 -0.296875 C 5.582031 -0.828125 4.550781 -1.59375 3.71875 -2.59375 C 2.882812 -3.601562 2.253906 -4.832031 1.828125 -6.28125 C 1.410156 -7.738281 1.203125 -9.390625 1.203125 -11.234375 C 1.203125 -13.265625 1.492188 -15.03125 2.078125 -16.53125 C 2.671875 -18.03125 3.460938 -19.28125 4.453125 -20.28125 C 5.441406 -21.28125 6.582031 -22.03125 7.875 -22.53125 C 9.164062 -23.03125 10.507812 -23.28125 11.90625 -23.28125 C 14.800781 -23.28125 17.515625 -22.484375 20.046875 -20.890625 C 20.023438 -20.523438 19.941406 -20.160156 19.796875 -19.796875 C 19.648438 -19.429688 19.472656 -19.078125 19.265625 -18.734375 C 19.054688 -18.390625 18.8125 -18.078125 18.53125 -17.796875 C 18.25 -17.515625 17.96875 -17.273438 17.6875 -17.078125 C 15.832031 -18.273438 13.960938 -18.875 12.078125 -18.875 C 8.453125 -18.875 6.640625 -16.34375 6.640625 -11.28125 C 6.640625 -6.226562 8.492188 -3.703125 12.203125 -3.703125 C 12.722656 -3.703125 13.21875 -3.722656 13.6875 -3.765625 C 14.164062 -3.816406 14.640625 -3.882812 15.109375 -3.96875 L 15.109375 -6.203125 C 15.109375 -6.710938 15.113281 -7.15625 15.125 -7.53125 C 15.132812 -7.914062 15.148438 -8.238281 15.171875 -8.5 L 13.515625 -8.5 C 12.554688 -8.5 11.890625 -8.679688 11.515625 -9.046875 C 11.148438 -9.421875 10.96875 -10 10.96875 -10.78125 C 10.96875 -11.445312 11.09375 -12.164062 11.34375 -12.9375 Z M 11.34375 -12.9375 "/></g></g></g><g fill="#044940" fill-opacity="1"><g transform="translate(114.597515, 30.416038)"><g><path d="M 2.609375 0 L 2.609375 -22.78125 C 3.296875 -22.914062 4.179688 -22.984375 5.265625 -22.984375 C 6.359375 -22.984375 7.257812 -22.914062 7.96875 -22.78125 L 7.96875 0 C 7.257812 0.132812 6.359375 0.203125 5.265625 0.203125 C 4.179688 0.203125 3.296875 0.132812 2.609375 0 Z M 2.609375 0 "/></g></g></g><g fill="#044940" fill-opacity="1"><g transform="translate(127.843385, 29.969674)"><g><path d="M 10.609375 0.140625 L 3.234375 0.0625 L 3.03125 -0.203125 L 3.03125 -22.578125 L 3.234375 -22.8125 L 10.171875 -22.921875 C 12.597656 -22.921875 14.414062 -22.394531 15.625 -21.34375 C 16.84375 -20.300781 17.453125 -18.8125 17.453125 -16.875 C 17.453125 -15.8125 17.160156 -14.863281 16.578125 -14.03125 C 16.003906 -13.195312 15.25 -12.585938 14.3125 -12.203125 C 14.863281 -12.023438 15.398438 -11.75 15.921875 -11.375 C 16.453125 -11 16.90625 -10.554688 17.28125 -10.046875 C 17.65625 -9.535156 17.957031 -8.96875 18.1875 -8.34375 C 18.425781 -7.71875 18.546875 -7.0625 18.546875 -6.375 C 18.546875 -4.414062 17.890625 -2.835938 16.578125 -1.640625 C 15.265625 -0.453125 13.273438 0.140625 10.609375 0.140625 Z M 6.53125 -2.53125 L 10.578125 -2.5625 C 11.398438 -2.5625 12.085938 -2.671875 12.640625 -2.890625 C 13.203125 -3.117188 13.648438 -3.414062 13.984375 -3.78125 C 14.316406 -4.15625 14.550781 -4.578125 14.6875 -5.046875 C 14.832031 -5.523438 14.90625 -6.046875 14.90625 -6.609375 C 14.90625 -7.097656 14.820312 -7.582031 14.65625 -8.0625 C 14.488281 -8.539062 14.222656 -8.96875 13.859375 -9.34375 C 13.492188 -9.71875 13.019531 -10.019531 12.4375 -10.25 C 11.863281 -10.488281 11.175781 -10.609375 10.375 -10.609375 L 6.53125 -10.609375 Z M 6.53125 -20.25 L 6.53125 -13.34375 L 10.046875 -13.34375 C 10.753906 -13.34375 11.351562 -13.429688 11.84375 -13.609375 C 12.332031 -13.785156 12.726562 -14.03125 13.03125 -14.34375 C 13.332031 -14.65625 13.546875 -15.019531 13.671875 -15.4375 C 13.804688 -15.863281 13.875 -16.3125 13.875 -16.78125 C 13.875 -19.070312 12.617188 -20.21875 10.109375 -20.21875 C 9.265625 -20.21875 8.546875 -20.21875 7.953125 -20.21875 C 7.367188 -20.21875 6.894531 -20.226562 6.53125 -20.25 Z M 6.53125 -20.25 "/></g></g></g><g fill="#044940" fill-opacity="1"><g transform="translate(148.021468, 29.969674)"><g><path d="M 14.3125 -5.53125 L 12.3125 -5.5 L 7.734375 -5.5 L 5.796875 -5.53125 L 4.03125 0.03125 C 3.65625 0.125 3.15625 0.171875 2.53125 0.171875 C 1.90625 0.171875 1.316406 0.09375 0.765625 -0.0625 L 0.671875 -0.234375 L 8.203125 -22.78125 C 8.671875 -22.875 9.347656 -22.921875 10.234375 -22.921875 C 11.128906 -22.921875 11.800781 -22.875 12.25 -22.78125 L 19.71875 -0.234375 C 19.25 0.078125 18.644531 0.234375 17.90625 0.234375 C 17.175781 0.234375 16.65625 0.101562 16.34375 -0.15625 C 16.03125 -0.425781 15.765625 -0.921875 15.546875 -1.640625 Z M 6.703125 -8.40625 L 8.40625 -8.4375 L 11.75 -8.4375 C 12.65625 -8.414062 13.207031 -8.40625 13.40625 -8.40625 L 11.875 -13.25 C 11.09375 -15.738281 10.503906 -17.75 10.109375 -19.28125 L 9.9375 -19.28125 C 9.675781 -18.0625 9.242188 -16.445312 8.640625 -14.4375 Z M 6.703125 -8.40625 "/></g></g></g><g fill="#044940" fill-opacity="1"><g transform="translate(168.399671, 29.969674)"><g><path d="M 1 -2.0625 C 1.09375 -3.15625 1.59375 -4.066406 2.5 -4.796875 C 4.8125 -3.285156 7.046875 -2.53125 9.203125 -2.53125 C 10.515625 -2.53125 11.554688 -2.816406 12.328125 -3.390625 C 13.097656 -3.972656 13.484375 -4.734375 13.484375 -5.671875 C 13.484375 -7.203125 12.46875 -8.40625 10.4375 -9.28125 L 6.5 -10.96875 C 3.457031 -12.28125 1.9375 -14.207031 1.9375 -16.75 C 1.9375 -17.65625 2.125 -18.503906 2.5 -19.296875 C 2.875 -20.085938 3.394531 -20.78125 4.0625 -21.375 C 4.738281 -21.976562 5.546875 -22.4375 6.484375 -22.75 C 7.429688 -23.0625 8.472656 -23.21875 9.609375 -23.21875 C 11.941406 -23.21875 14.253906 -22.640625 16.546875 -21.484375 C 16.523438 -20.410156 16.09375 -19.488281 15.25 -18.71875 C 13.113281 -19.757812 11.210938 -20.28125 9.546875 -20.28125 C 8.335938 -20.28125 7.363281 -19.984375 6.625 -19.390625 C 5.894531 -18.804688 5.53125 -18.113281 5.53125 -17.3125 C 5.53125 -16.488281 5.757812 -15.847656 6.21875 -15.390625 C 6.675781 -14.941406 7.375 -14.523438 8.3125 -14.140625 L 12.171875 -12.46875 C 13.835938 -11.757812 15.085938 -10.898438 15.921875 -9.890625 C 16.765625 -8.878906 17.1875 -7.671875 17.1875 -6.265625 C 17.1875 -4.265625 16.488281 -2.644531 15.09375 -1.40625 C 13.707031 -0.175781 11.601562 0.4375 8.78125 0.4375 C 5.945312 0.4375 3.351562 -0.394531 1 -2.0625 Z M 1 -2.0625 "/></g></g></g><g fill="#044940" fill-opacity="1"><g transform="translate(186.943503, 29.969674)"><g><path d="M 19.34375 -0.9375 C 18.851562 -0.175781 18.054688 0.203125 16.953125 0.203125 C 16.304688 0.203125 15.820312 0.0390625 15.5 -0.28125 C 15.175781 -0.601562 14.878906 -1.15625 14.609375 -1.9375 L 12.8125 -6.84375 C 12.34375 -8.082031 11.804688 -8.957031 11.203125 -9.46875 C 10.609375 -9.976562 9.859375 -10.234375 8.953125 -10.234375 C 8.054688 -10.234375 7.265625 -10.210938 6.578125 -10.171875 L 6.578125 0 C 6.109375 0.09375 5.507812 0.140625 4.78125 0.140625 C 4.0625 0.140625 3.476562 0.09375 3.03125 0 L 3.03125 -22.78125 C 3.476562 -22.875 4.0625 -22.921875 4.78125 -22.921875 C 5.507812 -22.921875 6.109375 -22.875 6.578125 -22.78125 L 6.578125 -13.203125 L 8.4375 -13.28125 C 8.75 -13.28125 8.988281 -13.34375 9.15625 -13.46875 C 9.320312 -13.601562 9.503906 -13.851562 9.703125 -14.21875 L 13.984375 -21.453125 C 14.285156 -21.984375 14.578125 -22.351562 14.859375 -22.5625 C 15.140625 -22.78125 15.578125 -22.890625 16.171875 -22.890625 C 16.773438 -22.890625 17.429688 -22.851562 18.140625 -22.78125 L 18.375 -22.484375 L 13.34375 -13.9375 C 12.914062 -13.226562 12.472656 -12.675781 12.015625 -12.28125 C 13.054688 -12.070312 13.867188 -11.644531 14.453125 -11 C 15.046875 -10.363281 15.578125 -9.421875 16.046875 -8.171875 L 17.84375 -3.328125 C 18.289062 -2.171875 18.789062 -1.375 19.34375 -0.9375 Z M 19.34375 -0.9375 "/></g></g></g><g fill="#044940" fill-opacity="1"><g transform="translate(206.821415, 29.969674)"><g><path d="M 6.5 -4.609375 L 6.46875 -2.90625 C 7.132812 -2.96875 7.867188 -3 8.671875 -3 L 17.3125 -3 C 17.3125 -2.40625 17.28125 -1.953125 17.21875 -1.640625 C 17.007812 -0.523438 16.25 0.03125 14.9375 0.03125 L 5.03125 0.03125 C 4.414062 0.03125 3.921875 -0.160156 3.546875 -0.546875 C 3.179688 -0.941406 3 -1.484375 3 -2.171875 L 3 -22.578125 L 3.234375 -22.78125 L 16.640625 -22.78125 C 16.710938 -22.425781 16.75 -21.953125 16.75 -21.359375 C 16.75 -20.773438 16.660156 -20.25 16.484375 -19.78125 L 6.46875 -19.78125 L 6.5 -17.609375 L 6.5 -12.9375 L 8.578125 -12.984375 L 14.84375 -12.984375 C 14.957031 -12.578125 15.015625 -12.078125 15.015625 -11.484375 C 15.015625 -10.898438 14.957031 -10.421875 14.84375 -10.046875 L 8.578125 -10.046875 C 7.703125 -10.046875 7.007812 -10.054688 6.5 -10.078125 Z M 6.5 -4.609375 "/></g></g></g><g fill="#044940" fill-opacity="1"><g transform="translate(225.698768, 29.969674)"><g><path d="M 11.9375 -19.78125 L 10 -19.8125 L 10 0 C 9.488281 0.09375 8.894531 0.140625 8.21875 0.140625 C 7.539062 0.140625 6.945312 0.09375 6.4375 0 L 6.4375 -17.34375 L 6.46875 -19.8125 L 6.4375 -19.8125 L 4.53125 -19.78125 L 0.5625 -19.78125 C 0.476562 -20.25 0.4375 -20.75 0.4375 -21.28125 C 0.4375 -21.8125 0.476562 -22.3125 0.5625 -22.78125 L 15.90625 -22.78125 C 16.039062 -22.25 16.109375 -21.738281 16.109375 -21.25 C 16.109375 -20.269531 15.441406 -19.78125 14.109375 -19.78125 Z M 11.9375 -19.78125 "/></g></g></g></svg>